<svg xmlns="http://www.w3.org/2000/svg" xmlns:xlink="http://www.w3.org/1999/xlink" width="1728" zoomAndPan="magnify" viewBox="0 0 1296 1727.999927" height="2304" preserveAspectRatio="xMidYMid meet" version="1.0"><defs><g/><clipPath id="04b16fd8fa"><path d="M 0.519531 0.441406 L 1225.480469 0.441406 L 1225.480469 200 L 0.519531 200 Z M 0.519531 0.441406 " clip-rule="nonzero"/></clipPath><clipPath id="4150e45454"><rect x="0" width="1226" y="0" height="200"/></clipPath><clipPath id="8fbf107ca6"><path d="M 507.167969 171.792969 L 789.335938 171.792969 L 789.335938 203.425781 L 507.167969 203.425781 Z M 507.167969 171.792969 " clip-rule="nonzero"/></clipPath><clipPath id="73517aee55"><path d="M 931.609375 53 L 1031 53 L 1031 158 L 931.609375 158 Z M 931.609375 53 " clip-rule="nonzero"/></clipPath><clipPath id="d30e51e595"><path d="M 953.816406 64.46875 L 1005.09375 64.46875 L 1005.09375 112.375 L 953.816406 112.375 Z M 953.816406 64.46875 " clip-rule="nonzero"/></clipPath><clipPath id="6fa2ff79c0"><path d="M 979.460938 64.46875 L 1005.09375 112.375 L 953.824219 112.375 Z M 979.460938 64.46875 " clip-rule="nonzero"/></clipPath><clipPath id="295e886d0d"><path d="M 0.816406 0.46875 L 52.09375 0.46875 L 52.09375 48.375 L 0.816406 48.375 Z M 0.816406 0.46875 " clip-rule="nonzero"/></clipPath><clipPath id="88029b108f"><path d="M 26.460938 0.46875 L 52.09375 48.375 L 0.824219 48.375 Z M 26.460938 0.46875 " clip-rule="nonzero"/></clipPath><clipPath id="3a1966dec3"><rect x="0" width="53" y="0" height="49"/></clipPath><clipPath id="6b5e00566f"><path d="M 931 117.28125 L 1031 117.28125 L 1031 159 L 931 159 Z M 931 117.28125 " clip-rule="nonzero"/></clipPath><clipPath id="a0057ab629"><path d="M 934.652344 112.371094 L 1024.273438 112.371094 L 1024.273438 134.578125 L 934.652344 134.578125 Z M 934.652344 112.371094 " clip-rule="nonzero"/></clipPath><clipPath id="296efae7ef"><path d="M 0.652344 0.371094 L 90.273438 0.371094 L 90.273438 22.578125 L 0.652344 22.578125 Z M 0.652344 0.371094 " clip-rule="nonzero"/></clipPath><clipPath id="aef39c9a42"><rect x="0" width="91" y="0" height="23"/></clipPath><clipPath id="b49856fff0"><path d="M 955.769531 64.726562 L 1005.015625 64.726562 L 1005.015625 138.414062 L 955.769531 138.414062 Z M 955.769531 64.726562 " clip-rule="nonzero"/></clipPath><clipPath id="7672fb6a7b"><path d="M 973 99 L 989 99 L 989 129 L 973 129 Z M 973 99 " clip-rule="nonzero"/></clipPath><clipPath id="e585ec570f"><path d="M 973.285156 100.445312 L 987.339844 99.5 L 989.300781 128.546875 L 975.242188 129.492188 Z M 973.285156 100.445312 " clip-rule="nonzero"/></clipPath><clipPath id="63925aa741"><path d="M 980.3125 99.972656 C 982.175781 99.847656 984.015625 100.464844 985.421875 101.695312 C 986.828125 102.925781 987.691406 104.664062 987.816406 106.527344 L 988.824219 121.476562 C 988.949219 123.339844 988.328125 125.175781 987.097656 126.582031 C 985.871094 127.992188 984.132812 128.851562 982.269531 128.976562 C 980.402344 129.101562 978.566406 128.484375 977.160156 127.253906 C 975.753906 126.023438 974.890625 124.285156 974.765625 122.421875 L 973.757812 107.472656 C 973.632812 105.609375 974.253906 103.773438 975.480469 102.367188 C 976.710938 100.957031 978.449219 100.097656 980.3125 99.972656 Z M 980.3125 99.972656 " clip-rule="nonzero"/></clipPath><clipPath id="8936bfee44"><path d="M 0.480469 0.800781 L 16 0.800781 L 16 30 L 0.480469 30 Z M 0.480469 0.800781 " clip-rule="nonzero"/></clipPath><clipPath id="2d92eec9df"><path d="M 0.285156 1.445312 L 14.339844 0.5 L 16.300781 29.546875 L 2.242188 30.492188 Z M 0.285156 1.445312 " clip-rule="nonzero"/></clipPath><clipPath id="aada618106"><path d="M 7.3125 0.972656 C 9.175781 0.847656 11.015625 1.464844 12.421875 2.695312 C 13.828125 3.925781 14.691406 5.664062 14.816406 7.527344 L 15.824219 22.476562 C 15.949219 24.339844 15.328125 26.175781 14.097656 27.582031 C 12.871094 28.992188 11.132812 29.851562 9.269531 29.976562 C 7.402344 30.101562 5.566406 29.484375 4.160156 28.253906 C 2.753906 27.023438 1.890625 25.285156 1.765625 23.421875 L 0.757812 8.472656 C 0.632812 6.609375 1.253906 4.773438 2.480469 3.367188 C 3.710938 1.957031 5.449219 1.097656 7.3125 0.972656 Z M 7.3125 0.972656 " clip-rule="nonzero"/></clipPath><clipPath id="1d230a1714"><rect x="0" width="16" y="0" height="30"/></clipPath><clipPath id="9e7cb0a32a"><path d="M 966 110 L 981 110 L 981 138 L 966 138 Z M 966 110 " clip-rule="nonzero"/></clipPath><clipPath id="26c0bcb864"><path d="M 966.625 110.105469 L 980.710938 110.167969 L 980.59375 137.355469 L 966.503906 137.292969 Z M 966.625 110.105469 " clip-rule="nonzero"/></clipPath><clipPath id="41352e9c6c"><path d="M 973.667969 110.136719 C 975.535156 110.144531 977.324219 110.894531 978.640625 112.222656 C 979.953125 113.550781 980.6875 115.34375 980.679688 117.214844 L 980.625 130.261719 C 980.613281 132.128906 979.863281 133.917969 978.539062 135.234375 C 977.210938 136.550781 975.417969 137.285156 973.546875 137.273438 C 971.679688 137.265625 969.890625 136.515625 968.574219 135.191406 C 967.261719 133.863281 966.527344 132.066406 966.535156 130.199219 L 966.59375 117.152344 C 966.601562 115.285156 967.351562 113.496094 968.675781 112.179688 C 970.003906 110.863281 971.800781 110.128906 973.667969 110.136719 Z M 973.667969 110.136719 " clip-rule="nonzero"/></clipPath><clipPath id="657cba46ab"><path d="M 0.519531 0.121094 L 14.921875 0.121094 L 14.921875 27.480469 L 0.519531 27.480469 Z M 0.519531 0.121094 " clip-rule="nonzero"/></clipPath><clipPath id="09a6a3de98"><path d="M 0.625 0.105469 L 14.710938 0.167969 L 14.59375 27.355469 L 0.503906 27.292969 Z M 0.625 0.105469 " clip-rule="nonzero"/></clipPath><clipPath id="8764231584"><path d="M 7.667969 0.136719 C 9.535156 0.144531 11.324219 0.894531 12.640625 2.222656 C 13.953125 3.550781 14.6875 5.34375 14.679688 7.214844 L 14.625 20.261719 C 14.613281 22.128906 13.863281 23.917969 12.539062 25.234375 C 11.210938 26.550781 9.417969 27.285156 7.546875 27.273438 C 5.679688 27.265625 3.890625 26.515625 2.574219 25.191406 C 1.261719 23.863281 0.527344 22.066406 0.535156 20.199219 L 0.59375 7.152344 C 0.601562 5.285156 1.351562 3.496094 2.675781 2.179688 C 4.003906 0.863281 5.800781 0.128906 7.667969 0.136719 Z M 7.667969 0.136719 " clip-rule="nonzero"/></clipPath><clipPath id="a7ae4e429b"><rect x="0" width="15" y="0" height="28"/></clipPath><clipPath id="47c9c31374"><path d="M 970 106 L 997 106 L 997 138 L 970 138 Z M 970 106 " clip-rule="nonzero"/></clipPath><clipPath id="2e98e6a75f"><path d="M 970.074219 107.332031 L 996.082031 106.667969 L 996.859375 136.941406 L 970.851562 137.609375 Z M 970.074219 107.332031 " clip-rule="nonzero"/></clipPath><clipPath id="42be0fa485"><path d="M 982.070312 107.027344 L 984.085938 106.972656 C 987.269531 106.894531 990.351562 108.078125 992.660156 110.269531 C 994.96875 112.464844 996.308594 115.480469 996.390625 118.664062 L 996.550781 124.898438 C 996.632812 128.078125 995.445312 131.160156 993.253906 133.46875 C 991.0625 135.777344 988.042969 137.117188 984.859375 137.199219 L 982.84375 137.25 C 979.664062 137.332031 976.582031 136.148438 974.273438 133.957031 C 971.964844 131.761719 970.625 128.746094 970.542969 125.5625 L 970.382812 119.328125 C 970.300781 116.148438 971.488281 113.0625 973.679688 110.757812 C 975.871094 108.449219 978.890625 107.109375 982.070312 107.027344 Z M 982.070312 107.027344 " clip-rule="nonzero"/></clipPath><clipPath id="627c565317"><path d="M 0.121094 0.761719 L 26.761719 0.761719 L 26.761719 31.480469 L 0.121094 31.480469 Z M 0.121094 0.761719 " clip-rule="nonzero"/></clipPath><clipPath id="b6133e7c32"><path d="M 0.0742188 1.332031 L 26.082031 0.667969 L 26.859375 30.941406 L 0.851562 31.609375 Z M 0.0742188 1.332031 " clip-rule="nonzero"/></clipPath><clipPath id="d227bd6acb"><path d="M 12.070312 1.027344 L 14.085938 0.972656 C 17.269531 0.894531 20.351562 2.078125 22.660156 4.269531 C 24.96875 6.464844 26.308594 9.480469 26.390625 12.664062 L 26.550781 18.898438 C 26.632812 22.078125 25.445312 25.160156 23.253906 27.46875 C 21.0625 29.777344 18.042969 31.117188 14.859375 31.199219 L 12.84375 31.25 C 9.664062 31.332031 6.582031 30.148438 4.273438 27.957031 C 1.964844 25.761719 0.625 22.746094 0.542969 19.5625 L 0.382812 13.328125 C 0.300781 10.148438 1.488281 7.0625 3.679688 4.757812 C 5.871094 2.449219 8.890625 1.109375 12.070312 1.027344 Z M 12.070312 1.027344 " clip-rule="nonzero"/></clipPath><clipPath id="be14e1baf2"><rect x="0" width="27" y="0" height="32"/></clipPath><clipPath id="5ad6b16ec7"><path d="M 971.0625 136.632812 L 991.554688 136.632812 L 991.554688 138.429688 L 971.0625 138.429688 Z M 971.0625 136.632812 " clip-rule="nonzero"/></clipPath><clipPath id="c05b21299f"><path d="M 991.554688 137.476562 C 991.554688 137.222656 991.453125 136.980469 991.273438 136.800781 C 991.09375 136.621094 990.851562 136.519531 990.597656 136.519531 L 971.976562 136.519531 C 971.722656 136.519531 971.480469 136.621094 971.300781 136.800781 C 971.121094 136.980469 971.019531 137.222656 971.019531 137.476562 C 971.019531 137.726562 971.121094 137.972656 971.300781 138.148438 C 971.480469 138.328125 971.722656 138.429688 971.976562 138.429688 L 990.597656 138.429688 C 990.851562 138.429688 991.09375 138.328125 991.273438 138.148438 C 991.453125 137.972656 991.554688 137.726562 991.554688 137.476562 Z M 991.554688 137.476562 " clip-rule="nonzero"/></clipPath><clipPath id="e7492fbbde"><rect x="0" width="1226" y="0" height="205"/></clipPath></defs><g transform="matrix(1, 0, 0, 1, 35, 889)"><g clip-path="url(#e7492fbbde)"><g clip-path="url(#04b16fd8fa)"><g transform="matrix(1, 0, 0, 1, -0.000000000000014211, -0.000000000000227374)"><g clip-path="url(#4150e45454)"><g fill="#ffffff" fill-opacity="1"><g transform="translate(0.844605, 155.764561)"><g><path d="M 13.546875 0 L 13.546875 -104.234375 L 58.03125 -104.234375 C 64.445312 -104.234375 69.878906 -103.222656 74.328125 -101.203125 C 78.773438 -99.179688 82.140625 -96.304688 84.421875 -92.578125 C 86.703125 -88.847656 87.84375 -84.441406 87.84375 -79.359375 C 87.84375 -74.742188 86.722656 -70.675781 84.484375 -67.15625 C 82.253906 -63.644531 79.046875 -60.816406 74.859375 -58.671875 L 74.859375 -57.1875 C 81.421875 -55.46875 86.484375 -52.347656 90.046875 -47.828125 C 93.609375 -43.316406 95.390625 -37.785156 95.390625 -31.234375 C 95.390625 -21.242188 92.382812 -13.539062 86.375 -8.125 C 80.363281 -2.707031 71.441406 0 59.609375 0 Z M 53.75 -62.671875 C 63.351562 -62.671875 68.15625 -66.992188 68.15625 -75.640625 C 68.15625 -80.066406 66.96875 -83.359375 64.59375 -85.515625 C 62.21875 -87.679688 58.601562 -88.765625 53.75 -88.765625 L 34.15625 -88.765625 L 34.15625 -62.671875 Z M 57.53125 -16.328125 C 68.894531 -16.328125 74.578125 -21.484375 74.578125 -31.796875 C 74.578125 -42.160156 68.894531 -47.34375 57.53125 -47.34375 L 34.15625 -47.34375 L 34.15625 -16.328125 Z M 57.53125 -16.328125 "/></g></g></g><g fill="#ffffff" fill-opacity="1"><g transform="translate(102.790683, 155.764561)"><g><path d="M 13.546875 0 L 13.546875 -104.234375 L 55.390625 -104.234375 C 66.179688 -104.234375 74.320312 -101.75 79.8125 -96.78125 C 85.300781 -91.8125 88.046875 -84.957031 88.046875 -76.21875 C 88.046875 -69.894531 86.441406 -64.710938 83.234375 -60.671875 C 80.023438 -56.628906 75.238281 -53.539062 68.875 -51.40625 L 68.875 -49.90625 C 72.15625 -48.476562 74.804688 -46.363281 76.828125 -43.5625 C 78.847656 -40.757812 80.757812 -36.597656 82.5625 -31.078125 L 92.96875 0 L 71.796875 0 L 61.59375 -31.15625 C 60.550781 -34.289062 59.375 -36.722656 58.0625 -38.453125 C 56.757812 -40.191406 55.097656 -41.453125 53.078125 -42.234375 C 51.054688 -43.023438 48.429688 -43.421875 45.203125 -43.421875 L 34.15625 -43.421875 L 34.15625 0 Z M 52.90625 -59.75 C 62.882812 -59.75 67.875 -64.40625 67.875 -73.71875 C 67.875 -83.175781 62.882812 -87.90625 52.90625 -87.90625 L 34.15625 -87.90625 L 34.15625 -59.75 Z M 52.90625 -59.75 "/></g></g></g><g fill="#ffffff" fill-opacity="1"><g transform="translate(200.245436, 155.764561)"><g><path d="M 34.15625 0 L 13.546875 0 L 13.546875 -104.234375 L 34.15625 -104.234375 Z M 34.15625 0 "/></g></g></g><g fill="#ffffff" fill-opacity="1"><g transform="translate(248.01037, 155.764561)"><g><path d="M 50.625 1.5 C 41.925781 1.5 34.398438 -0.484375 28.046875 -4.453125 C 21.703125 -8.421875 16.804688 -14.410156 13.359375 -22.421875 C 9.921875 -30.429688 8.203125 -40.332031 8.203125 -52.125 C 8.203125 -64 10.269531 -73.941406 14.40625 -81.953125 C 18.539062 -89.960938 24.28125 -95.925781 31.625 -99.84375 C 38.96875 -103.769531 47.488281 -105.734375 57.1875 -105.734375 C 67.164062 -105.734375 75.671875 -103.878906 82.703125 -100.171875 C 89.734375 -96.460938 94.675781 -90.945312 97.53125 -83.625 L 82.484375 -74.5 L 80.703125 -74.578125 C 78.566406 -79.234375 75.5625 -82.628906 71.6875 -84.765625 C 67.8125 -86.910156 62.976562 -87.984375 57.1875 -87.984375 C 48.195312 -87.984375 41.328125 -85.140625 36.578125 -79.453125 C 31.828125 -73.773438 29.453125 -64.664062 29.453125 -52.125 C 29.453125 -39.519531 31.671875 -30.363281 36.109375 -24.65625 C 40.554688 -18.957031 47.128906 -16.109375 55.828125 -16.109375 C 63.335938 -16.109375 68.875 -17.796875 72.4375 -21.171875 C 76 -24.546875 77.78125 -29.585938 77.78125 -36.296875 L 77.78125 -40.78125 L 53.109375 -40.78125 L 53.109375 -57.53125 L 98.25 -57.53125 L 98.25 0 L 78.5625 0 L 78.5625 -13.96875 L 77.078125 -14.1875 C 74.929688 -9.195312 71.679688 -5.332031 67.328125 -2.59375 C 62.984375 0.132812 57.414062 1.5 50.625 1.5 Z M 50.625 1.5 "/></g></g></g><g fill="#ffffff" fill-opacity="1"><g transform="translate(356.729096, 155.764561)"><g><path d="M 80.84375 -65.015625 L 80.84375 -104.234375 L 101.390625 -104.234375 L 101.390625 0 L 80.84375 0 L 80.84375 -47.484375 L 34.15625 -47.484375 L 34.15625 0 L 13.546875 0 L 13.546875 -104.234375 L 34.15625 -104.234375 L 34.15625 -65.015625 Z M 80.84375 -65.015625 "/></g></g></g><g fill="#ffffff" fill-opacity="1"><g transform="translate(471.721426, 155.764561)"><g><path d="M 83.5625 -104.234375 L 83.5625 -86.90625 L 53.46875 -86.90625 L 53.46875 0 L 32.9375 0 L 32.9375 -86.90625 L 2.859375 -86.90625 L 2.859375 -104.234375 Z M 83.5625 -104.234375 "/></g></g></g><g fill="#ffffff" fill-opacity="1"><g transform="translate(558.126097, 155.764561)"><g><path d="M 34.15625 -45.765625 L 34.15625 -17.25 L 83.921875 -17.25 L 83.921875 0 L 13.546875 0 L 13.546875 -104.234375 L 82.78125 -104.234375 L 82.78125 -86.984375 L 34.15625 -86.984375 L 34.15625 -62.59375 L 76.640625 -62.59375 L 76.640625 -45.765625 Z M 34.15625 -45.765625 "/></g></g></g><g fill="#ffffff" fill-opacity="1"><g transform="translate(647.738822, 155.764561)"><g><path d="M 13.546875 0 L 13.546875 -104.234375 L 55.390625 -104.234375 C 66.179688 -104.234375 74.320312 -101.75 79.8125 -96.78125 C 85.300781 -91.8125 88.046875 -84.957031 88.046875 -76.21875 C 88.046875 -69.894531 86.441406 -64.710938 83.234375 -60.671875 C 80.023438 -56.628906 75.238281 -53.539062 68.875 -51.40625 L 68.875 -49.90625 C 72.15625 -48.476562 74.804688 -46.363281 76.828125 -43.5625 C 78.847656 -40.757812 80.757812 -36.597656 82.5625 -31.078125 L 92.96875 0 L 71.796875 0 L 61.59375 -31.15625 C 60.550781 -34.289062 59.375 -36.722656 58.0625 -38.453125 C 56.757812 -40.191406 55.097656 -41.453125 53.078125 -42.234375 C 51.054688 -43.023438 48.429688 -43.421875 45.203125 -43.421875 L 34.15625 -43.421875 L 34.15625 0 Z M 52.90625 -59.75 C 62.882812 -59.75 67.875 -64.40625 67.875 -73.71875 C 67.875 -83.175781 62.882812 -87.90625 52.90625 -87.90625 L 34.15625 -87.90625 L 34.15625 -59.75 Z M 52.90625 -59.75 "/></g></g></g><g fill="#ffffff" fill-opacity="1"><g transform="translate(745.193587, 155.764561)"><g><path d="M 46.203125 1.5 C 38.972656 1.5 32.539062 0.609375 26.90625 -1.171875 C 21.28125 -2.953125 16.585938 -5.289062 12.828125 -8.1875 C 9.078125 -11.09375 6.203125 -14.28125 4.203125 -17.75 L 15.546875 -31.578125 L 17.328125 -31.578125 C 20.460938 -26.921875 24.441406 -23.210938 29.265625 -20.453125 C 34.085938 -17.703125 39.734375 -16.328125 46.203125 -16.328125 C 51.710938 -16.328125 55.867188 -17.488281 58.671875 -19.8125 C 61.484375 -22.144531 62.890625 -25.359375 62.890625 -29.453125 C 62.890625 -31.921875 62.4375 -33.984375 61.53125 -35.640625 C 60.625 -37.304688 59.125 -38.734375 57.03125 -39.921875 C 54.945312 -41.109375 52.117188 -42.128906 48.546875 -42.984375 L 35.15625 -46.0625 C 25.789062 -48.195312 18.8125 -51.75 14.21875 -56.71875 C 9.632812 -61.6875 7.34375 -68.140625 7.34375 -76.078125 C 7.34375 -81.972656 8.816406 -87.148438 11.765625 -91.609375 C 14.710938 -96.078125 19 -99.546875 24.625 -102.015625 C 30.257812 -104.492188 37 -105.734375 44.84375 -105.734375 C 52.875 -105.734375 59.753906 -104.675781 65.484375 -102.5625 C 71.210938 -100.445312 76.050781 -97.203125 80 -92.828125 L 69.796875 -78.859375 L 68.015625 -78.859375 C 65.066406 -81.941406 61.691406 -84.253906 57.890625 -85.796875 C 54.085938 -87.347656 49.738281 -88.125 44.84375 -88.125 C 39.1875 -88.125 34.882812 -87.125 31.9375 -85.125 C 28.988281 -83.132812 27.515625 -80.378906 27.515625 -76.859375 C 27.515625 -73.578125 28.546875 -70.960938 30.609375 -69.015625 C 32.679688 -67.066406 36.265625 -65.546875 41.359375 -64.453125 L 55.046875 -61.59375 C 65.171875 -59.457031 72.515625 -55.832031 77.078125 -50.71875 C 81.640625 -45.613281 83.921875 -38.953125 83.921875 -30.734375 C 83.921875 -24.222656 82.515625 -18.550781 79.703125 -13.71875 C 76.898438 -8.894531 72.671875 -5.148438 67.015625 -2.484375 C 61.359375 0.171875 54.421875 1.5 46.203125 1.5 Z M 46.203125 1.5 "/></g></g></g><g fill="#ffffff" fill-opacity="1"><g transform="translate(834.735037, 155.764561)"><g><path d="M 53.828125 -104.234375 C 61.285156 -104.234375 67.664062 -102.863281 72.96875 -100.125 C 78.269531 -97.394531 82.273438 -93.570312 84.984375 -88.65625 C 87.691406 -83.738281 89.046875 -78.023438 89.046875 -71.515625 C 89.046875 -65.003906 87.691406 -59.300781 84.984375 -54.40625 C 82.273438 -49.507812 78.269531 -45.691406 72.96875 -42.953125 C 67.664062 -40.222656 61.285156 -38.859375 53.828125 -38.859375 L 34.15625 -38.859375 L 34.15625 0 L 13.546875 0 L 13.546875 -104.234375 Z M 51.125 -55.1875 C 62.570312 -55.1875 68.296875 -60.628906 68.296875 -71.515625 C 68.296875 -82.441406 62.570312 -87.90625 51.125 -87.90625 L 34.15625 -87.90625 L 34.15625 -55.1875 Z M 51.125 -55.1875 "/></g></g></g><g fill="#ffffff" fill-opacity="1"><g transform="translate(929.989058, 155.764561)"><g/></g></g><g fill="#ffffff" fill-opacity="1"><g transform="translate(964.422599, 155.764561)"><g/></g></g><g fill="#ffffff" fill-opacity="1"><g transform="translate(998.85614, 155.764561)"><g/></g></g><g fill="#ffffff" fill-opacity="1"><g transform="translate(1033.289834, 155.764561)"><g><path d="M 56.96875 1.5 C 47.363281 1.5 38.898438 -0.492188 31.578125 -4.484375 C 24.265625 -8.484375 18.539062 -14.484375 14.40625 -22.484375 C 10.269531 -30.492188 8.203125 -40.375 8.203125 -52.125 C 8.203125 -63.863281 10.269531 -73.734375 14.40625 -81.734375 C 18.539062 -89.742188 24.265625 -95.742188 31.578125 -99.734375 C 38.898438 -103.734375 47.363281 -105.734375 56.96875 -105.734375 C 67 -105.734375 75.519531 -103.769531 82.53125 -99.84375 C 89.539062 -95.925781 94.539062 -89.953125 97.53125 -81.921875 L 82.484375 -72.71875 L 80.703125 -72.796875 C 78.472656 -78.210938 75.441406 -82.097656 71.609375 -84.453125 C 67.785156 -86.804688 62.90625 -87.984375 56.96875 -87.984375 C 48.3125 -87.984375 41.5625 -85.117188 36.71875 -79.390625 C 31.875 -73.660156 29.453125 -64.570312 29.453125 -52.125 C 29.453125 -39.71875 31.875 -30.648438 36.71875 -24.921875 C 41.5625 -19.191406 48.3125 -16.328125 56.96875 -16.328125 C 70.507812 -16.328125 78.800781 -22.910156 81.84375 -36.078125 L 83.625 -36.078125 L 98.8125 -28.15625 C 95.96875 -18.269531 91.097656 -10.851562 84.203125 -5.90625 C 77.304688 -0.96875 68.226562 1.5 56.96875 1.5 Z M 56.96875 1.5 "/></g></g></g><g fill="#ffffff" fill-opacity="1"><g transform="translate(1135.521076, 155.764561)"><g><path d="M 34.15625 -45.765625 L 34.15625 -17.25 L 83.921875 -17.25 L 83.921875 0 L 13.546875 0 L 13.546875 -104.234375 L 82.78125 -104.234375 L 82.78125 -86.984375 L 34.15625 -86.984375 L 34.15625 -62.59375 L 76.640625 -62.59375 L 76.640625 -45.765625 Z M 34.15625 -45.765625 "/></g></g></g></g></g></g><g clip-path="url(#8fbf107ca6)"><path fill="#00aeff" d="M 599.082031 186.777344 C 586.441406 189.605469 574.105469 193.644531 561.386719 196.082031 C 551.691406 198.109375 540.714844 198.25 533.429688 190.480469 C 529.1875 187.097656 522.464844 192.101562 518.285156 193.691406 C 514.269531 195.074219 511.125 197.972656 507.167969 199.519531 C 513.390625 192.851562 526.375 181.070312 535.320312 189.089844 C 539.589844 193.238281 545.59375 194.941406 551.464844 194.304688 C 572.441406 193.554688 608 173.339844 625.6875 187.28125 C 627.371094 189.332031 628.933594 189.910156 631.515625 189.183594 C 634.230469 188.425781 637.152344 188.546875 639.949219 187.976562 C 648.832031 186.273438 657.835938 184.355469 666.894531 185.921875 C 670.082031 186.414062 673.316406 186.640625 676.484375 185.609375 C 679.167969 184.957031 675.226562 182.683594 676.375 176.777344 C 676.699219 171.445312 683.359375 170.519531 686.816406 173.628906 C 689.261719 176.96875 688.308594 182.542969 685.050781 185.332031 C 684.484375 185.828125 683.742188 186.152344 683.421875 186.890625 C 686.59375 192.566406 696.566406 196.578125 704.359375 191.8125 C 712.335938 186.867188 718 178.917969 726.921875 175.421875 C 742.085938 168.667969 756.890625 178.078125 766.476562 189.628906 C 771.3125 194.582031 778.8125 195.972656 785.226562 193.382812 C 786.027344 193.066406 786.84375 192.855469 787.703125 192.925781 C 788.625 193 788.984375 193.75 789.238281 194.460938 C 789.519531 195.234375 788.878906 195.480469 788.296875 195.761719 C 777.980469 201.488281 765.800781 195.535156 759.226562 186.828125 C 752.910156 178.628906 741.035156 174.675781 731.371094 178.9375 C 723.558594 182.53125 717.765625 189.140625 710.714844 193.890625 C 701.375 201.023438 688.582031 198.625 681.191406 189.757812 C 680.332031 188.84375 679.5625 188.464844 678.210938 188.871094 C 675.851562 189.582031 673.363281 189.769531 670.90625 189.5 C 660.421875 188.105469 650.355469 191.121094 640.070312 192.429688 C 637.3125 192.859375 630.117188 192.628906 629.304688 195.90625 C 628.5 199.609375 625.382812 201.210938 622.546875 203.015625 C 620.222656 204.207031 616.78125 202.988281 616.632812 200.101562 C 616.589844 195.121094 621.167969 192.34375 625.496094 190.480469 C 619.484375 184.285156 606.863281 185.222656 599.082031 186.773438 Z M 620.757812 197.75 C 619.886719 198.945312 619.878906 201.203125 621.933594 200.59375 C 624.230469 200.613281 628.6875 194.378906 625.578125 194.730469 C 623.980469 195.515625 622.019531 196.074219 620.757812 197.75 Z M 682.597656 182.285156 C 683.539062 181.175781 684.550781 179.421875 683.476562 178.132812 C 683.011719 177.542969 682.191406 178.035156 681.570312 178.21875 C 680.175781 178.574219 680.351562 179.972656 680.496094 181.121094 L 680.5 181.121094 C 680.453125 182.863281 681.347656 184.320312 682.597656 182.285156 Z M 682.597656 182.285156 " fill-opacity="1" fill-rule="nonzero"/></g><g clip-path="url(#73517aee55)"><path fill="#00aeff" d="M 1030.410156 157.984375 L 1008.628906 157.984375 L 1000.75 133.847656 L 960.628906 133.847656 L 952.746094 157.984375 L 931.46875 157.984375 L 967.652344 53.277344 L 994.230469 53.277344 Z M 979.6875 75.121094 L 966.21875 116.445312 L 995.015625 116.445312 L 981.476562 75.121094 Z M 979.6875 75.121094 " fill-opacity="1" fill-rule="nonzero"/></g><g clip-path="url(#d30e51e595)"><g clip-path="url(#6fa2ff79c0)"><g transform="matrix(1, 0, 0, 1, 953, 64)"><g clip-path="url(#3a1966dec3)"><g clip-path="url(#295e886d0d)"><g clip-path="url(#88029b108f)"><path fill="#00aeff" d="M 52.09375 48.375 L 0.816406 48.375 L 0.816406 0.46875 L 52.09375 0.46875 Z M 52.09375 48.375 " fill-opacity="1" fill-rule="nonzero"/></g></g></g></g></g></g><g clip-path="url(#6b5e00566f)"><path fill="#ffffff" d="M 1030.4375 158.164062 L 1008.65625 158.164062 L 1000.777344 134.019531 L 960.652344 134.019531 L 952.769531 158.164062 L 931.488281 158.164062 L 967.675781 53.414062 L 994.253906 53.414062 Z M 979.710938 75.265625 L 966.242188 116.609375 L 995.042969 116.609375 L 981.503906 75.265625 Z M 979.710938 75.265625 " fill-opacity="1" fill-rule="nonzero"/></g><g clip-path="url(#a0057ab629)"><g transform="matrix(1, 0, 0, 1, 934, 112)"><g clip-path="url(#aef39c9a42)"><g clip-path="url(#296efae7ef)"><path fill="#000000" d="M 90.273438 22.578125 L 0.667969 22.578125 L 0.667969 0.371094 L 90.273438 0.371094 Z M 90.273438 22.578125 " fill-opacity="1" fill-rule="nonzero"/></g></g></g></g><g clip-path="url(#b49856fff0)"><path fill="#000000" d="M 965.058594 101.878906 C 965.207031 102.21875 965.320312 102.578125 965.476562 102.917969 C 965.746094 103.511719 966.257812 103.652344 966.859375 103.632812 C 967.484375 103.609375 967.945312 103.351562 968.097656 102.71875 C 968.300781 101.855469 968.488281 100.992188 968.625 100.117188 C 969.203125 96.429688 970.589844 93.066406 972.464844 89.855469 C 973.917969 87.371094 975.332031 84.835938 976.46875 82.195312 C 978.523438 77.410156 978.960938 72.386719 978.015625 67.261719 C 977.867188 66.460938 977.566406 65.6875 977.527344 64.761719 C 978.460938 65.417969 979.425781 66.027344 980.3125 66.738281 C 983.714844 69.472656 986.585938 72.683594 988.867188 76.421875 C 990.238281 78.660156 991.28125 81.03125 991.851562 83.609375 C 992.492188 86.515625 992.191406 89.359375 991.253906 92.140625 C 990.464844 94.507812 990.027344 96.917969 990.144531 99.421875 C 990.195312 100.5625 990.484375 101.636719 991.199219 102.542969 C 991.425781 102.832031 991.703125 103.105469 992.007812 103.289062 C 992.953125 103.835938 993.390625 103.757812 994.023438 102.878906 C 994.59375 102.085938 995.128906 101.265625 995.589844 100.410156 C 996.730469 98.304688 1000.75 95.265625 1001.085938 95.199219 C 1001.085938 95.511719 1001.144531 95.75 1001.078125 95.945312 C 999.679688 99.976562 1000.28125 103.9375 1001.5625 107.851562 C 1002.175781 109.707031 1002.9375 111.511719 1003.597656 113.355469 C 1004.753906 116.601562 1005.355469 119.921875 1004.832031 123.378906 C 1004.121094 128.058594 1001.875 131.832031 998.203125 134.808594 C 995.613281 136.902344 992.613281 138.085938 989.5 139.066406 C 989.230469 139.152344 988.90625 139.082031 988.332031 139.082031 C 988.792969 138.6875 989.046875 138.453125 989.320312 138.238281 C 993.261719 135.164062 994.761719 131.082031 994.292969 126.1875 C 994.101562 124.164062 993.367188 122.304688 992.511719 120.488281 C 991.476562 118.296875 990.492188 116.082031 990.320312 113.617188 C 990.25 112.664062 990.308594 111.703125 990.308594 110.484375 C 988.671875 111.757812 987.953125 113.382812 987.65625 115.078125 C 987.375 116.722656 987.546875 118.449219 987.511719 120.359375 C 987.152344 120.023438 986.847656 119.785156 986.601562 119.5 C 984.382812 116.914062 983.246094 113.847656 982.6875 110.53125 C 982.300781 108.210938 982.285156 105.894531 982.589844 103.566406 C 982.664062 102.976562 982.707031 102.378906 982.792969 101.53125 C 982.34375 101.808594 982.054688 101.910156 981.863281 102.113281 C 978.621094 105.511719 976.480469 109.464844 975.933594 114.175781 C 975.671875 116.4375 975.582031 118.722656 975.375 120.992188 C 975.257812 122.285156 975.085938 123.578125 974.863281 124.859375 C 974.808594 125.164062 974.492188 125.613281 974.25 125.644531 C 973.996094 125.683594 973.570312 125.355469 973.421875 125.074219 C 972.558594 123.480469 971.757812 121.851562 970.917969 120.246094 C 970.628906 119.691406 970.28125 119.175781 969.945312 118.617188 C 968.113281 120.328125 967.167969 125.660156 967.890625 129.917969 C 968.582031 134.007812 971.074219 136.949219 974.226562 139.4375 C 974.058594 139.570312 968.265625 138.183594 965.722656 136.683594 C 961.511719 134.191406 958.621094 130.578125 956.992188 125.984375 C 955.667969 122.257812 955.441406 118.40625 956.269531 114.554688 C 957.109375 110.644531 958.152344 106.777344 959.078125 102.882812 C 959.675781 100.386719 960.105469 97.859375 959.804688 95.273438 C 959.714844 94.503906 959.503906 93.753906 959.347656 92.992188 C 959.417969 92.910156 962.484375 94.609375 965.058594 101.878906 Z M 965.058594 101.878906 " fill-opacity="1" fill-rule="nonzero"/></g><g clip-path="url(#7672fb6a7b)"><g clip-path="url(#e585ec570f)"><g clip-path="url(#63925aa741)"><g transform="matrix(1, 0, 0, 1, 973, 99)"><g clip-path="url(#1d230a1714)"><g clip-path="url(#8936bfee44)"><g clip-path="url(#2d92eec9df)"><g clip-path="url(#aada618106)"><path fill="#000000" d="M 0.285156 1.445312 L 14.339844 0.5 L 16.296875 29.492188 L 2.238281 30.4375 Z M 0.285156 1.445312 " fill-opacity="1" fill-rule="nonzero"/></g></g></g></g></g></g></g></g><g clip-path="url(#9e7cb0a32a)"><g clip-path="url(#26c0bcb864)"><g clip-path="url(#41352e9c6c)"><g transform="matrix(1, 0, 0, 1, 966, 110)"><g clip-path="url(#a7ae4e429b)"><g clip-path="url(#657cba46ab)"><g clip-path="url(#09a6a3de98)"><g clip-path="url(#8764231584)"><path fill="#000000" d="M 0.625 0.105469 L 14.710938 0.167969 L 14.59375 27.300781 L 0.503906 27.238281 Z M 0.625 0.105469 " fill-opacity="1" fill-rule="nonzero"/></g></g></g></g></g></g></g></g><g clip-path="url(#47c9c31374)"><g clip-path="url(#2e98e6a75f)"><g clip-path="url(#42be0fa485)"><g transform="matrix(1, 0, 0, 1, 970, 106)"><g clip-path="url(#be14e1baf2)"><g clip-path="url(#627c565317)"><g clip-path="url(#b6133e7c32)"><g clip-path="url(#d227bd6acb)"><path fill="#000000" d="M 0.0742188 1.332031 L 26.082031 0.667969 L 26.859375 30.941406 L 0.851562 31.609375 Z M 0.0742188 1.332031 " fill-opacity="1" fill-rule="nonzero"/></g></g></g></g></g></g></g></g><g clip-path="url(#5ad6b16ec7)"><g clip-path="url(#c05b21299f)"><path fill="#000000" d="M 981.289062 154.316406 L 976.15625 145.425781 L 971.023438 136.539062 L 991.554688 136.539062 L 986.421875 145.425781 Z M 981.289062 154.316406 " fill-opacity="1" fill-rule="nonzero"/></g></g></g></g></svg>